<?xml version="1.0" standalone="no"?>
<!DOCTYPE svg PUBLIC "-//W3C//DTD SVG 20010904//EN"
 "http://www.w3.org/TR/2001/REC-SVG-20010904/DTD/svg10.dtd">
<svg version="1.0" xmlns="http://www.w3.org/2000/svg"
 width="2048.000000pt" height="2048.000000pt" viewBox="0 0 2048.000000 2048.000000"
 preserveAspectRatio="xMidYMid meet">

<g transform="translate(0.000000,2048.000000) scale(0.100000,-0.100000)"
fill="#000000" stroke="none">
<path d="M10707 13173 c-3 -6226 -4 -6676 -20 -6792 -51 -371 -143 -669 -298
-970 -281 -544 -724 -973 -1279 -1239 -1058 -508 -2320 -288 -3150 547 -439
441 -702 974 -796 1616 -14 91 -18 181 -18 370 1 277 17 428 75 662 264 1081
1134 1898 2224 2092 399 70 849 47 1231 -63 48 -14 92 -26 96 -26 4 0 8 753 8
1674 0 1586 -1 1675 -17 1680 -10 3 -94 13 -188 23 -134 14 -256 18 -575 18
-398 0 -481 -5 -770 -41 -917 -115 -1810 -443 -2585 -952 -464 -304 -807 -603
-1206 -1052 -365 -411 -750 -995 -964 -1460 -289 -631 -465 -1334 -537 -2150
-19 -216 -16 -757 5 -950 55 -494 153 -949 312 -1450 123 -389 389 -930 663
-1350 307 -471 743 -955 1217 -1350 105 -88 428 -332 470 -356 11 -6 76 -48
145 -92 929 -595 2187 -946 3295 -918 959 24 1735 207 2520 596 562 278 1071
631 1540 1066 674 626 1271 1553 1565 2434 179 535 300 1185 330 1775 6 126
10 1439 10 3548 0 1841 2 3347 6 3347 3 0 145 -92 317 -204 350 -228 399 -257
654 -385 607 -304 1315 -552 1913 -670 429 -85 1079 -165 1523 -187 l137 -7 0
1634 0 1634 -188 1 c-631 3 -1495 266 -2132 648 -446 267 -954 708 -1250 1084
-642 814 -989 1750 -993 2680 l-1 202 -1643 0 -1643 0 -3 -6667z"/>
</g>
</svg>
